<svg width="80.002mm" height="114.23mm" version="1.1" viewBox="0 0 21.167 114.23" xmlns="http://www.w3.org/2000/svg">
 <g transform="translate(-92.259 3.9827)">
  <g transform="translate(-1.8851 -55.634)">
   <path d="m139.26 163.41h-65.951c-3.9499-29.308 66.595-29.183 65.951 0z" style="fill:#39496b;paint-order:stroke fill markers;stop-color:#000000"/>
   <ellipse cx="104.52" cy="145.27" rx="8.7151" ry="8.9559" style="fill:#29344c;paint-order:stroke fill markers;stop-color:#000000"/>
  </g>
  <ellipse cx="102.13" cy="35.662" rx="28.997" ry="29.599" style="display:none;fill:#573a33;paint-order:stroke fill markers;stop-color:#000000"/>
  <g transform="translate(-1.8851 -55.634)" style="display:none">
   <ellipse cx="132.74" cy="102.89" rx="9.4301" ry="10.421" style="fill:#fca;mix-blend-mode:normal;paint-order:stroke fill markers;stop-color:#000000"/>
   <ellipse cx="131.2" cy="102.94" rx="6.3516" ry="7.0192" style="fill:#e8ae97;mix-blend-mode:normal;paint-order:stroke fill markers;stop-color:#000000"/>
   <g transform="matrix(-1 0 0 1 209.45 0)">
    <ellipse cx="132.74" cy="102.89" rx="9.4301" ry="10.421" style="fill:#fca;mix-blend-mode:normal;paint-order:stroke fill markers;stop-color:#000000"/>
    <ellipse cx="131.2" cy="102.94" rx="6.3516" ry="7.0192" style="fill:#e8ae97;mix-blend-mode:normal;paint-order:stroke fill markers;stop-color:#000000"/>
   </g>
   <path d="m98.498 126.37h12.076v18.676c0 9.2055-12.076 7.2369-12.076 0z" style="fill:#e8ae97;paint-order:stroke fill markers;stop-color:#000000"/>
   <ellipse cx="104.49" cy="102.89" rx="26.898" ry="36.099" style="fill-opacity:.9999;fill:#fca;paint-order:stroke fill markers;stop-color:#000000"/>
  </g>
  <g transform="translate(-1.8851 -55.634)" style="display:none">
   <path d="m87.675 115.13h33.861c-7.8135 22.177-29.974 17.085-33.861 0z" style="fill:#fff;paint-order:stroke fill markers;stop-color:#000000;stroke-linecap:round;stroke-linejoin:round;stroke-width:2.6458;stroke:#e8ae97"/>
   <path d="m89.682 120.56 6.9221 0.19913-5.8146 1.5829z" style="fill-opacity:.99741;fill:#c0c0c0"/>
   <path d="m119.08 120.61-6.911 0.14772 5.7048 1.6675z" style="fill-opacity:.9999;fill:#c0c0c0"/>
  </g>
  <g transform="translate(-1.8851 -55.634)" style="display:none">
   <ellipse cx="91.664" cy="100.84" rx="10.216" ry="11.173" style="fill:#fffbf9;paint-order:stroke fill markers;stop-color:#000000"/>
   <ellipse cx="93.117" cy="102.92" rx="2.9151" ry="4.5849" style="paint-order:stroke fill markers;stop-color:#000000;stroke-linecap:round;stroke-linejoin:round;stroke-width:2.7446;stroke:#3c873b"/>
   <g transform="matrix(-1 0 0 1 207.52 -.62671)">
    <ellipse cx="91.664" cy="100.84" rx="10.216" ry="11.173" style="fill:#fffbf9;paint-order:stroke fill markers;stop-color:#000000"/>
    <ellipse cx="93.117" cy="102.92" rx="2.9151" ry="4.5849" style="paint-order:stroke fill markers;stop-color:#000000;stroke-linecap:round;stroke-linejoin:round;stroke-width:2.7446;stroke:#3c873b"/>
   </g>
   <ellipse transform="rotate(5.6752)" cx="103.36" cy="75.968" rx="5.2821" ry="2.1129" style="fill-opacity:.97647;fill:#472115;paint-order:stroke fill markers;stop-color:#000000"/>
   <ellipse transform="matrix(-.9951 .098889 .098889 .9951 0 0)" cx="-103.22" cy="96.48" rx="5.2821" ry="2.1129" style="fill-opacity:.97647;fill:#472115;paint-order:stroke fill markers;stop-color:#000000"/>
  </g>
  <g transform="translate(-1.8851 -55.634)" style="display:none">
   <ellipse cx="110.04" cy="63.56" rx="10.664" ry="9.4365" style="fill-opacity:.99812;fill:#381d14;paint-order:stroke fill markers;stop-color:#000000"/>
   <ellipse cx="97.911" cy="70.024" rx="8.5647" ry="8.3621" style="fill-opacity:.99812;fill:#381d14;paint-order:stroke fill markers;stop-color:#000000"/>
  </g>
 </g>
</svg>
