<svg width="80.002mm" height="114.23mm" version="1.1" viewBox="0 0 21.167 114.23" xmlns="http://www.w3.org/2000/svg">
 <g transform="translate(-217.34 -51.398)">
  <g transform="matrix(1 0 0 .98156 123.23 2.5134)">
   <path d="m139.26 163.41h-65.951c-3.9499-29.308 66.595-29.183 65.951 0z" style="fill:#668c53;paint-order:stroke fill markers;stop-color:#000000"/>
   <ellipse cx="104.52" cy="145.27" rx="8.7151" ry="8.9559" style="fill:#395829;paint-order:stroke fill markers;stop-color:#000000"/>
  </g>
  <path d="m200.91 74.149c3.451-27.863 50.22-28.322 53.728 0 0.97536 7.8751 2.9261 23.625 2.9261 23.625h-59.58s1.9507-15.75 2.9261-23.625z" style="display:none;fill:#573a33;paint-order:stroke fill markers;stop-color:#000000"/>
  <g transform="translate(123.23)" style="display:none">
   <ellipse cx="132.74" cy="102.89" rx="9.4301" ry="10.421" style="fill:#c59074;mix-blend-mode:normal;paint-order:stroke fill markers;stop-color:#000000"/>
   <ellipse cx="131.2" cy="102.94" rx="6.3516" ry="7.0192" style="fill:#926c55;mix-blend-mode:normal;paint-order:stroke fill markers;stop-color:#000000"/>
   <g transform="matrix(-1 0 0 1 209.45 0)">
    <ellipse cx="132.74" cy="102.89" rx="9.4301" ry="10.421" style="fill:#c59074;mix-blend-mode:normal;paint-order:stroke fill markers;stop-color:#000000"/>
    <ellipse cx="131.2" cy="102.94" rx="6.3516" ry="7.0192" style="fill:#926c55;mix-blend-mode:normal;paint-order:stroke fill markers;stop-color:#000000"/>
   </g>
   <g transform="matrix(1 0 0 .9745 0 1.7033)">
    <path d="m98.498 126.37h12.076v18.676c0 9.2055-12.076 7.2369-12.076 0z" style="fill:#926c55;paint-order:stroke fill markers;stop-color:#000000"/>
    <ellipse cx="104.49" cy="102.89" rx="26.898" ry="36.099" style="fill-opacity:.9999;fill:#c59074;paint-order:stroke fill markers;stop-color:#000000"/>
   </g>
  </g>
  <g transform="translate(123.23)" style="display:none">
   <path d="m87.53 115.79h34.153c-5.7123 14.485-30.232 13.408-34.153 0z" style="fill:#fff;paint-order:stroke fill markers;stop-color:#000000;stroke-linecap:round;stroke-linejoin:round;stroke-width:2.3539;stroke:#926c55"/>
   <path d="m88.546 118.34 6.9221 0.19913-5.8146 1.5829z" style="fill-opacity:.99741;fill:#c0c0c0"/>
   <path d="m120.4 118.29-6.911 0.14772 5.7048 1.6675z" style="fill-opacity:.9999;fill:#c0c0c0"/>
  </g>
  <g transform="translate(123.23)" style="display:none">
   <ellipse cx="91.664" cy="100.84" rx="10.216" ry="11.173" style="fill:#fffbf9;paint-order:stroke fill markers;stop-color:#000000"/>
   <ellipse cx="93.117" cy="102.92" rx="2.9151" ry="4.5849" style="paint-order:stroke fill markers;stop-color:#000000;stroke-linecap:round;stroke-linejoin:round;stroke-width:2.7446;stroke:#5386aa"/>
   <g transform="matrix(-1 0 0 1 207.52 -.62671)">
    <ellipse cx="91.664" cy="100.84" rx="10.216" ry="11.173" style="fill:#fffbf9;paint-order:stroke fill markers;stop-color:#000000"/>
    <ellipse cx="93.117" cy="102.92" rx="2.9151" ry="4.5849" style="font-variation-settings:normal;paint-order:stroke fill markers;stop-color:#000000;stroke-linecap:round;stroke-linejoin:round;stroke-width:2.7446;stroke:#5386aa"/>
   </g>
   <rect transform="rotate(7.2644)" x="99.169" y="71.509" width="11.986" height="3.4946" ry="1.4434" style="fill:#422c27;paint-order:stroke fill markers;stop-color:#000000"/>
   <rect transform="matrix(-.99197 .12645 .12645 .99197 0 0)" x="-106.05" y="97.669" width="11.986" height="3.4946" ry="1.4434" style="fill:#422c27;paint-order:stroke fill markers;stop-color:#000000"/>
  </g>
  <ellipse cx="227.71" cy="67.957" rx="17.36" ry="14.255" style="display:none;fill:#422c27;paint-order:stroke fill markers;stop-color:#000000"/>
 </g>
</svg>
